<?xml version="1.0" standalone="no"?>
<!DOCTYPE svg PUBLIC "-//W3C//DTD SVG 20010904//EN"
 "http://www.w3.org/TR/2001/REC-SVG-20010904/DTD/svg10.dtd">
<svg version="1.0" xmlns="http://www.w3.org/2000/svg"
 width="405.000000pt" height="848.000000pt" viewBox="0 0 405.000000 848.000000"
 preserveAspectRatio="xMidYMid meet">
<metadata>
Created by potrace 1.16, written by Peter Selinger 2001-2019
</metadata>
<g transform="translate(0.000000,848.000000) scale(0.100000,-0.100000)"
fill="#000000" stroke="none">
<path d="M0 8088 l0 -392 28 26 c47 44 145 105 196 122 56 19 81 9 73 -32 -6
-33 15 -38 80 -18 l55 18 -6 42 c-6 41 -5 45 29 72 21 17 46 28 59 26 12 -2
39 9 59 23 44 29 74 32 81 8 3 -10 10 -72 16 -138 7 -65 16 -144 21 -175 6
-30 14 -127 19 -215 5 -88 16 -218 25 -290 17 -149 19 -248 5 -275 -7 -13 -6
-19 4 -23 22 -9 35 -151 26 -283 -1 -27 -9 -45 -21 -52 -11 -7 -19 -8 -19 -2
0 5 -13 7 -30 4 -31 -7 -39 3 -18 24 14 14 -13 27 -38 18 -13 -5 -15 -2 -11
13 4 17 2 18 -14 8 -10 -6 -19 -17 -19 -24 0 -16 -10 -16 -46 -3 -20 8 -29 8
-34 -1 -6 -8 -14 -8 -31 2 -13 7 -34 12 -47 10 -17 -2 -25 3 -29 18 -4 15 -13
21 -34 21 -15 0 -31 -4 -34 -10 -3 -5 1 -10 9 -10 9 0 16 -4 16 -10 0 -13 -16
-13 -41 0 -13 7 -19 7 -19 0 0 -12 -78 -11 -86 2 -11 18 -32 7 -37 -19 -6 -33
-3 -38 15 -27 21 14 79 11 73 -3 -2 -7 0 -13 6 -13 5 0 20 -9 32 -20 19 -18
23 -19 33 -5 6 8 19 15 28 15 9 0 16 8 16 20 0 25 8 25 27 3 11 -14 16 -15 20
-5 4 10 8 10 19 1 9 -7 31 -9 62 -5 58 7 112 -14 112 -45 0 -23 -15 -25 -24
-3 -3 9 -12 14 -19 11 -6 -2 -40 4 -74 13 -35 10 -63 14 -63 9 0 -11 62 -69
74 -69 5 0 18 7 28 17 17 15 19 14 29 -16 6 -17 20 -36 30 -42 10 -5 19 -16
19 -24 0 -8 10 -19 21 -26 29 -15 6 -30 -33 -22 -17 3 -28 1 -28 -5 0 -14 19
-25 48 -28 30 -4 36 -9 29 -29 -8 -19 -47 -20 -47 0 0 8 -8 15 -18 15 -10 0
-24 6 -31 13 -6 6 -30 12 -52 12 -31 0 -39 -4 -39 -18 0 -17 -1 -17 -16 -3
-20 21 -8 39 22 32 17 -5 24 -2 24 9 0 11 8 13 33 8 26 -5 30 -3 20 8 -7 7
-13 20 -13 28 0 14 2 14 11 1 7 -12 9 -8 7 15 -3 25 -8 30 -30 31 -28 1 -39
-18 -18 -31 6 -3 10 -11 10 -18 0 -6 -15 3 -33 21 -31 30 -34 31 -55 16 -12
-8 -27 -12 -32 -9 -15 9 -2 26 17 23 9 -2 18 3 20 10 3 6 -2 12 -11 12 -9 0
-16 6 -16 14 0 10 -10 14 -35 13 -21 -1 -35 -7 -35 -15 0 -10 -8 -12 -31 -7
-28 6 -30 5 -24 -14 6 -19 2 -21 -29 -21 -41 0 -76 28 -76 60 0 18 3 19 20 10
11 -6 19 -16 17 -22 -1 -6 4 -13 11 -15 14 -5 16 25 3 45 -4 8 -19 12 -33 11
-13 -2 -38 5 -54 16 -53 35 -94 53 -100 43 -9 -13 -34 11 -34 33 0 11 -4 19
-10 19 -6 0 -10 -66 -10 -179 l0 -179 49 -11 c35 -7 67 -7 106 0 59 11 77 7
57 -13 -7 -7 -12 -20 -12 -30 0 -14 -8 -18 -40 -18 -27 0 -43 5 -46 15 -4 8
-12 15 -20 15 -8 0 -14 -7 -14 -15 0 -8 7 -15 15 -15 16 0 20 -16 6 -24 -5 -3
-14 1 -21 9 -7 8 -20 15 -30 15 -10 0 -20 9 -23 20 -8 31 -27 24 -27 -10 0
-19 5 -30 12 -29 18 3 48 -11 48 -22 0 -5 -13 -9 -30 -9 l-30 0 0 -569 c0
-560 0 -569 20 -574 18 -5 20 -13 19 -104 0 -68 -6 -115 -20 -155 -20 -61 -26
-188 -9 -188 6 0 10 -13 10 -30 0 -16 -4 -30 -10 -30 -5 0 -10 -7 -10 -16 0
-12 12 -5 43 22 23 22 53 47 67 56 l25 17 -33 -6 c-27 -5 -31 -3 -26 11 3 9 2
16 -2 16 -5 0 -15 4 -23 9 -12 8 -12 12 2 25 9 9 14 23 10 31 -7 19 43 257 64
305 l15 35 12 -30 c8 -19 15 -25 20 -17 4 7 3 12 -2 12 -5 0 -9 6 -9 14 0 18
39 25 146 25 121 1 128 -2 140 -61 13 -57 2 -88 -30 -88 -12 0 -17 4 -13 11 3
6 0 15 -7 20 -21 13 -29 11 -29 -10 0 -11 -6 -21 -12 -24 -10 -3 -10 -7 1 -20
12 -15 11 -20 -10 -42 -44 -45 -57 -63 -61 -82 -2 -10 -15 -20 -33 -24 -17 -4
-22 -7 -13 -8 9 0 18 -6 20 -12 3 -8 16 -10 41 -5 30 6 37 11 37 31 0 26 42
65 70 65 48 0 124 147 102 196 -8 16 -8 25 -1 30 12 7 12 7 25 -31 8 -26 14
-30 44 -30 29 0 36 -4 38 -23 3 -21 1 -22 -17 -12 -23 12 -29 -1 -8 -18 43
-36 46 -23 47 213 1 138 12 279 25 308 6 14 2 17 -29 17 -43 0 -44 6 -6 44 28
28 54 29 44 1 -4 -10 7 -15 43 -20 26 -4 59 -10 73 -14 34 -10 68 -63 74 -114
2 -23 9 -78 14 -122 6 -44 8 -111 5 -148 -6 -66 -5 -68 13 -57 16 10 26 8 59
-12 22 -12 51 -23 65 -23 19 0 26 -7 35 -35 6 -19 20 -51 33 -70 18 -28 22
-50 22 -113 l0 -78 -105 6 c-72 4 -105 3 -105 -5 0 -5 12 -10 28 -9 61 2 152
-14 152 -27 0 -9 -11 -14 -30 -14 -20 0 -30 -5 -30 -15 0 -9 -9 -15 -22 -15
-20 0 -20 1 -5 18 16 18 16 19 -13 19 -22 0 -29 -5 -28 -16 2 -10 -6 -17 -21
-19 -18 -3 -22 0 -18 12 4 9 2 16 -2 16 -16 0 -21 -31 -21 -123 1 -68 3 -87
11 -74 6 10 15 14 22 10 7 -4 19 -8 27 -10 8 -1 30 -5 47 -8 26 -5 32 -3 27 9
-4 11 3 13 37 10 54 -5 64 -14 15 -14 -22 0 -35 -4 -31 -10 3 -6 51 -10 109
-10 97 0 104 -1 109 -21 3 -12 12 -19 19 -17 19 7 14 84 -11 198 -12 52 -30
152 -39 221 -10 70 -23 133 -29 140 -6 8 -19 50 -27 94 -9 44 -25 107 -35 140
-32 103 -46 150 -47 155 0 3 -3 12 -6 20 -3 8 -11 35 -17 60 -7 25 -16 58 -21
74 -5 16 -7 32 -5 37 3 4 -6 38 -19 76 -36 105 -44 132 -62 213 -23 109 -25
121 -24 161 0 22 -7 44 -20 59 -11 13 -20 28 -21 34 -1 6 -3 31 -5 56 -5 72
-14 123 -23 135 -20 24 -55 250 -52 329 1 21 -3 44 -10 52 -16 20 -13 219 5
269 13 36 13 40 -2 44 -26 5 -30 19 -31 105 0 45 -6 106 -12 136 -12 54 -15
84 -24 210 -2 36 -9 106 -15 155 -12 98 -17 174 -19 275 -1 46 -4 61 -11 50
-5 -8 -10 -10 -10 -4 0 6 3 14 7 18 4 3 7 48 7 99 l1 92 37 18 c20 10 52 21
71 24 34 5 35 4 42 -35 4 -27 13 -42 25 -45 22 -6 26 -34 39 -272 12 -211 30
-445 36 -465 2 -8 9 -70 15 -137 12 -127 38 -242 39 -176 1 18 -8 90 -18 160
-22 145 -36 306 -51 568 -6 99 -15 217 -20 261 -11 87 -7 114 17 114 25 0 100
45 158 96 80 69 160 117 215 129 19 4 40 11 45 15 16 13 60 16 60 5 0 -5 -6
-9 -12 -7 -16 4 -16 2 3 -44 10 -24 14 -53 11 -77 -6 -46 0 -67 18 -67 18 0
23 19 14 58 -9 41 6 51 23 15 17 -36 51 -44 47 -11 -2 12 0 24 4 26 23 8 38
-5 84 -71 28 -40 59 -79 67 -86 23 -19 20 -33 -6 -29 -17 2 -24 -3 -26 -19 -2
-13 2 -23 8 -23 7 0 10 -7 6 -15 -3 -9 1 -15 11 -15 8 0 26 -12 38 -26 13 -15
25 -22 29 -16 3 6 -8 22 -25 36 -27 23 -29 29 -18 44 7 9 14 19 16 21 1 2 19
-9 40 -24 27 -20 19 -8 -29 41 -54 56 -178 229 -178 249 0 3 7 5 15 5 7 0 18
7 23 17 11 19 42 11 42 -11 0 -13 4 -14 28 -3 15 6 31 16 35 22 5 6 7 1 4 -11
-2 -11 2 -29 11 -40 14 -18 14 -17 8 9 -5 22 -3 27 12 27 29 0 33 11 10 30
l-21 17 21 21 c11 11 25 30 31 41 14 25 94 81 115 81 9 0 16 5 16 10 0 7 -322
10 -945 10 l-945 0 0 -392z"/>
<path d="M2918 8463 c-9 -10 -21 -28 -27 -40 -15 -30 -27 -29 -35 2 -4 14 -11
25 -16 25 -13 0 -13 -27 0 -35 15 -10 12 -35 -5 -35 -22 0 -19 -53 4 -74 17
-16 20 -16 35 -1 9 9 16 29 16 45 0 38 19 80 37 80 15 0 17 -16 3 -25 -16 -10
-12 -35 6 -35 12 0 15 -6 10 -24 -8 -33 21 -58 39 -33 18 25 25 21 25 -13 0
-31 16 -41 26 -15 6 16 -26 105 -38 105 -4 0 0 12 8 28 7 15 14 33 14 40 0 6
5 12 11 12 6 0 8 -7 5 -16 -3 -8 -1 -24 4 -34 7 -13 7 -21 0 -25 -6 -4 -4 -18
7 -38 15 -27 18 -29 21 -12 1 11 7 29 12 40 4 11 11 28 14 37 7 23 36 12 36
-13 0 -39 15 -17 18 26 l2 45 -108 0 c-91 0 -111 -3 -124 -17z"/>
<path d="M3517 7401 c3 -12 1 -21 -6 -21 -6 0 -11 7 -11 15 0 22 -17 18 -23
-5 -4 -14 -14 -20 -35 -20 -17 0 -34 5 -37 10 -5 8 -11 7 -21 -1 -11 -9 -18
-9 -26 -1 -14 14 -38 16 -38 4 0 -13 47 -32 77 -32 22 0 24 -3 18 -27 -7 -31
-33 -63 -49 -63 -6 0 -3 6 6 13 35 27 -8 45 -82 35 -14 -2 -28 1 -33 7 -5 6
-15 1 -28 -15 l-21 -25 31 -3 c17 -2 31 -9 31 -16 0 -18 -27 -52 -36 -44 -4 4
-23 -6 -42 -23 -24 -21 -37 -27 -42 -19 -9 15 -80 -13 -80 -32 0 -10 -2 -10
-9 1 -6 8 -16 11 -31 6 -15 -5 -20 -4 -16 4 12 18 -9 12 -32 -9 -12 -11 -28
-20 -36 -20 -8 0 -18 -5 -21 -11 -4 -6 -13 -8 -20 -5 -7 2 -16 -1 -18 -9 -3
-7 3 -15 15 -18 31 -9 16 -32 -23 -34 -64 -4 -84 -3 -87 7 -2 6 -12 10 -22 10
-14 0 -21 -10 -26 -37 -4 -21 -14 -43 -23 -50 -14 -11 -14 -12 0 -13 8 0 21 6
27 12 14 14 82 18 82 5 0 -4 -13 -16 -30 -25 -30 -17 -43 -46 -15 -36 8 4 15
2 15 -3 0 -10 -103 -73 -119 -73 -6 0 -11 -7 -11 -15 0 -9 9 -15 25 -15 14 0
25 4 25 9 0 5 12 12 26 15 14 4 35 16 47 26 11 11 27 20 34 20 15 0 18 36 3
45 -6 4 -4 15 6 30 9 14 20 22 25 20 4 -3 13 4 19 15 6 11 21 20 33 20 37 -1
87 12 87 21 0 5 -12 14 -27 20 -18 7 -23 13 -16 20 8 8 17 7 33 -1 18 -9 25
-8 41 6 17 15 19 15 19 1 0 -8 -5 -17 -11 -19 -5 -2 -7 -11 -3 -22 7 -18 34
-18 102 0 17 5 22 2 22 -14 0 -30 -27 -49 -51 -34 -15 10 -30 8 -79 -9 -33
-11 -65 -17 -72 -13 -7 4 -10 4 -6 -1 18 -19 -14 -34 -60 -28 -30 4 -43 3 -39
-4 9 -15 96 -26 110 -15 21 17 67 23 88 12 15 -8 24 -8 34 0 14 12 35 6 35
-10 0 -15 -64 -50 -71 -38 -5 7 -14 5 -30 -6 -13 -9 -31 -16 -40 -16 -9 0 -24
-11 -33 -24 -8 -14 -24 -27 -35 -31 -10 -3 -22 -13 -25 -23 -3 -9 -9 -23 -12
-30 -5 -10 1 -10 24 2 17 9 38 16 47 16 8 0 15 5 15 10 0 13 37 13 45 0 11
-18 23 -1 17 23 -5 19 -3 20 10 9 13 -10 17 -10 21 0 4 10 7 11 18 1 9 -10 10
-13 1 -13 -7 0 -12 -5 -12 -10 0 -6 -20 -30 -45 -53 -49 -48 -50 -60 -2 -46
17 5 33 7 35 4 3 -3 11 0 19 7 19 15 25 5 17 -26 -5 -20 -10 -24 -19 -16 -8 7
-20 1 -41 -20 -16 -16 -33 -30 -37 -30 -5 0 -27 -13 -50 -29 -23 -15 -53 -32
-67 -36 -14 -4 -31 -12 -37 -17 -16 -13 -17 0 -3 36 13 36 4 32 -16 -5 -9 -17
-14 -42 -11 -54 3 -16 0 -22 -10 -18 -7 3 -13 -2 -13 -11 0 -20 17 -20 63 -1
34 14 36 14 39 -6 3 -21 3 -21 26 -1 12 11 22 26 22 33 1 18 25 50 33 43 3 -4
-1 -17 -10 -30 -9 -14 -13 -28 -9 -32 4 -3 11 0 16 8 5 8 12 11 16 7 4 -4 16
5 26 20 10 16 18 22 18 16 0 -15 36 -17 45 -3 9 15 25 12 25 -5 0 -8 5 -15 10
-15 13 0 13 27 -1 32 -17 6 2 38 23 38 11 0 28 5 39 10 22 12 23 8 10 -38 -5
-17 -6 -32 -3 -32 17 0 52 32 52 48 0 15 1 15 16 1 18 -19 64 -13 64 7 0 8 7
14 15 14 17 0 20 -25 5 -35 -5 -3 -10 -14 -10 -23 0 -10 -9 -24 -20 -32 -18
-13 -28 -40 -14 -40 16 0 44 23 44 36 0 10 6 13 18 10 14 -5 18 -1 18 15 -1
12 5 24 13 27 10 3 11 -2 5 -19 -4 -13 -7 -38 -5 -55 1 -32 -1 -34 -79 -69
-48 -21 -87 -44 -77 -46 4 -1 20 -2 36 -3 25 -1 28 2 20 17 -14 24 15 23 41
-3 25 -25 33 -25 26 -2 -8 24 24 26 41 3 18 -24 17 -136 -2 -151 -8 -7 -12
-16 -9 -21 3 -5 0 -9 -5 -9 -6 0 -11 -15 -11 -32 0 -23 3 -29 9 -19 17 27 26
1 24 -71 -1 -40 -2 -89 -2 -108 -1 -29 -7 -39 -31 -53 -16 -10 -27 -23 -24
-31 5 -14 -23 -43 -33 -32 -3 3 -1 6 5 6 7 0 12 9 12 20 0 11 -4 20 -10 20 -5
0 -10 7 -10 15 0 9 -9 15 -21 15 -14 0 -19 5 -17 17 2 11 16 17 48 20 25 2 52
11 60 20 8 9 10 13 3 9 -19 -10 -26 13 -9 30 18 17 12 39 -7 27 -7 -4 -20 -6
-29 -5 -12 2 -18 -3 -18 -17 0 -12 -4 -21 -10 -21 -5 0 -10 3 -10 8 0 4 -21 8
-47 10 -56 4 -71 20 -40 44 12 10 16 18 10 18 -7 0 -22 9 -33 20 -11 11 -26
17 -35 14 -9 -4 -15 0 -15 9 0 9 -9 18 -20 22 -11 3 -19 11 -17 17 1 6 -9 12
-22 13 -21 2 -22 1 -7 -11 10 -6 13 -15 8 -18 -5 -3 -15 1 -22 9 -7 8 -18 15
-24 15 -6 0 -5 -4 3 -9 12 -8 12 -13 -3 -35 -18 -28 -32 -35 -23 -12 6 16 -13
66 -26 66 -4 0 -12 -10 -17 -22 -7 -18 -9 -19 -9 -5 -1 10 -8 20 -17 24 -11 4
-14 13 -10 30 5 19 1 25 -20 33 -16 7 -38 7 -59 1 -18 -5 -39 -5 -46 0 -8 4
-24 6 -36 2 -14 -3 -23 -1 -23 6 0 11 13 15 39 11 30 -4 61 23 61 52 0 18 -5
28 -15 28 -8 0 -15 5 -15 10 0 6 7 10 16 8 25 -4 30 22 6 29 -12 3 -18 11 -15
19 4 10 -4 13 -31 12 -20 -1 -38 1 -41 4 -10 9 7 38 18 31 6 -4 8 0 4 10 -3 9
0 18 9 21 13 5 12 10 -5 35 -25 34 -27 56 -6 47 9 -3 15 0 15 8 0 22 -12 25
-36 9 -14 -9 -27 -13 -30 -10 -9 9 20 47 33 42 7 -2 13 2 13 9 0 16 -27 29
-42 20 -5 -3 -7 -12 -4 -20 6 -16 -10 -29 -19 -15 -7 13 -71 -25 -80 -47 -5
-15 -9 -14 -25 8 -16 20 -20 22 -20 8 0 -10 -7 -18 -15 -18 -8 0 -22 -12 -31
-26 -14 -21 -24 -25 -53 -22 -41 3 -51 12 -43 40 4 16 11 19 33 14 16 -3 29
-1 29 4 0 5 7 18 15 27 23 27 22 36 -2 38 -12 1 -20 -2 -17 -6 7 -13 -55 -41
-75 -34 -15 5 -17 1 -13 -20 3 -18 -1 -30 -14 -40 -23 -18 -81 -19 -86 -3 -5
15 -85 -21 -112 -51 -20 -22 -18 -24 27 -21 15 1 27 -3 27 -9 0 -7 -10 -9 -27
-5 -22 6 -25 4 -20 -10 6 -16 -31 -66 -49 -66 -4 0 -4 21 -1 46 4 36 2 44 -9
40 -8 -3 -14 1 -14 9 0 8 6 12 14 9 18 -7 32 16 16 26 -7 4 -21 -2 -35 -16
-29 -29 -51 -30 -65 -4 -6 11 -17 20 -25 20 -8 0 -15 7 -15 15 0 8 6 15 13 15
19 0 36 20 30 36 -3 8 -11 14 -19 14 -8 0 -14 5 -14 10 0 6 7 10 15 10 22 0
18 16 -10 38 -25 20 -33 42 -15 42 5 0 17 -11 26 -25 18 -28 34 -33 34 -10 0
9 6 18 13 21 19 7 18 41 0 49 -9 3 -21 1 -27 -5 -12 -12 -29 -13 -22 -1 9 14
-4 41 -19 41 -7 0 -18 7 -25 15 -20 24 -43 -1 -35 -37 6 -25 4 -28 -17 -28
-32 0 -48 -18 -48 -52 0 -17 -8 -33 -20 -40 -11 -7 -20 -18 -20 -24 0 -6 -14
-11 -30 -11 -22 0 -29 4 -26 14 7 16 -6 17 -22 1 -18 -18 -34 9 -27 47 5 31
-6 59 -25 61 -5 1 -14 2 -20 3 -5 0 -10 9 -10 19 0 13 -2 14 -9 4 -4 -7 -12
-12 -17 -10 -5 1 -19 -3 -31 -10 -15 -8 -23 -9 -23 -2 0 11 -30 13 -54 4 -9
-3 -25 -26 -35 -50 -11 -25 -27 -44 -35 -44 -23 0 -20 21 3 27 20 5 35 39 21
48 -5 3 -14 -4 -20 -16 -11 -20 -12 -20 -31 -3 -23 21 -28 54 -5 35 11 -9 16
-9 22 0 4 7 2 15 -4 17 -17 5 -15 22 2 22 21 0 30 20 17 33 -9 9 -14 8 -21 -3
-7 -12 -12 -12 -21 -3 -10 10 -17 5 -36 -22 -13 -19 -23 -38 -23 -43 0 -5 -7
-15 -15 -22 -12 -10 -15 -10 -15 4 0 9 -8 16 -20 16 -11 0 -20 -5 -20 -10 0
-6 -6 -10 -14 -8 -14 3 -66 -46 -66 -63 0 -5 -7 -9 -15 -9 -8 0 -15 -4 -15
-10 0 -5 -4 -10 -10 -10 -5 0 -10 7 -10 15 0 17 -35 21 -45 5 -3 -5 1 -10 9
-10 9 0 16 -7 16 -16 0 -11 -5 -14 -16 -10 -9 3 -18 6 -20 6 -2 0 -4 7 -4 15
0 8 -7 15 -15 15 -18 0 -20 30 -2 31 6 1 21 1 32 0 20 -2 20 -1 1 14 -25 19
-34 19 -53 0 -10 -11 -16 -43 -18 -113 -4 -91 -3 -93 7 -44 14 66 24 67 20 2
-3 -41 -1 -50 12 -50 18 0 21 -16 5 -26 -6 -4 -9 -21 -6 -43 14 -94 38 -202
56 -260 12 -35 21 -74 21 -86 0 -13 7 -25 15 -28 11 -5 12 -12 4 -37 -6 -16
-8 -38 -3 -48 4 -9 8 -21 9 -27 0 -5 4 -17 8 -25 3 -8 10 -35 14 -60 7 -36 13
-46 31 -48 19 -3 21 -6 11 -18 -18 -22 -3 -91 91 -414 26 -86 78 -293 84 -330
3 -17 63 -30 102 -22 27 5 32 -15 12 -48 -10 -16 -10 -24 0 -41 13 -21 12 -21
-14 -15 -16 4 -31 8 -34 9 -6 2 -10 -8 -10 -29 0 -14 3 -14 15 -4 11 9 15 9
15 1 0 -6 -6 -14 -14 -17 -8 -3 -12 -12 -9 -20 3 -8 0 -14 -6 -14 -12 0 -15
-52 -4 -63 3 -4 12 -2 19 4 23 19 28 -16 10 -70 -9 -28 -16 -59 -16 -70 0 -28
-28 -27 -33 2 -3 20 -4 21 -12 3 -5 -11 -3 -26 4 -38 7 -11 11 -36 10 -56 -2
-21 -1 -39 2 -40 2 -2 20 -1 41 3 46 9 86 -10 110 -50 23 -40 9 -95 -30 -124
-47 -35 -62 -54 -62 -75 1 -43 49 -188 75 -226 15 -22 25 -46 21 -55 -13 -35
9 -58 72 -76 l62 -17 0 47 c0 26 4 51 8 56 5 6 14 30 21 55 12 45 49 130 60
140 3 3 6 13 6 23 0 9 4 17 9 16 13 -1 26 23 26 49 0 31 17 28 35 -8 10 -19
20 -27 30 -24 28 11 15 -11 -22 -36 -79 -53 -103 -80 -103 -116 0 -28 3 -32
18 -27 21 8 36 27 58 72 14 29 20 32 45 27 22 -4 27 -2 23 9 -4 8 1 18 10 21
20 8 69 -34 62 -52 -2 -6 7 -11 25 -12 15 0 36 -5 44 -10 15 -8 14 -11 -7 -24
-13 -8 -33 -18 -46 -22 -22 -7 -22 -9 15 -28 21 -11 42 -23 46 -27 12 -12 -2
-39 -25 -44 -14 -4 -18 -11 -14 -24 9 -28 -14 -52 -58 -59 -22 -3 -50 -13 -63
-21 -18 -12 -27 -13 -35 -5 -8 8 -19 7 -38 -5 -19 -11 -34 -13 -46 -8 -11 5
-30 10 -44 11 -14 1 -35 5 -47 9 -17 6 -23 3 -23 -9 0 -9 6 -16 13 -16 9 0 11
-12 9 -39 -3 -29 -8 -38 -18 -34 -19 7 -18 -12 1 -31 16 -16 20 -36 7 -36 -4
0 -13 5 -20 12 -6 6 -15 9 -18 5 -7 -7 16 -110 47 -212 10 -33 27 -98 39 -145
25 -98 66 -207 87 -232 11 -12 12 -18 2 -24 -9 -5 -7 -9 8 -15 22 -8 82 -114
70 -125 -4 -4 -15 0 -24 8 -20 17 -43 13 -43 -7 0 -17 -11 -20 -122 -39 -48
-8 -96 -20 -107 -25 -11 -6 -38 -11 -60 -11 -34 0 -41 4 -45 23 -27 128 -35
170 -42 217 -4 30 -7 59 -5 64 1 5 -5 23 -13 40 -14 30 -29 126 -28 176 0 14
-4 30 -10 37 -5 7 -7 17 -3 23 4 6 1 17 -5 25 -6 8 -9 19 -5 25 3 5 1 10 -4
10 -6 0 -11 -6 -12 -12 0 -7 -4 -4 -8 7 -5 11 -5 28 0 37 6 10 3 38 -6 74 -8
32 -15 73 -15 91 0 17 -5 35 -10 38 -6 4 -7 11 -4 17 4 6 1 14 -6 18 -9 6 -14
41 -15 117 -2 59 -8 127 -15 150 -16 51 -7 65 57 95 40 19 70 43 41 33 -7 -2
-33 -9 -57 -15 -47 -12 -101 -62 -101 -93 0 -13 -5 -17 -15 -13 -8 3 -15 2
-15 -2 0 -11 -95 -62 -116 -63 -11 0 -39 -14 -64 -30 -25 -16 -64 -39 -87 -51
-37 -19 -42 -26 -41 -54 1 -24 5 -31 16 -27 11 5 13 1 7 -17 l-7 -23 153 6
c85 4 165 8 179 9 16 2 26 -3 28 -14 3 -15 -4 -17 -50 -16 -30 1 -61 -3 -69
-8 -8 -5 -30 -10 -49 -12 -88 -6 -100 -12 -100 -48 0 -24 5 -34 15 -34 9 0 18
-7 21 -15 4 -9 19 -15 39 -15 18 0 38 -7 45 -15 10 -12 9 -15 -5 -15 -10 0
-15 -3 -11 -8 4 -4 21 -7 38 -7 25 0 31 -5 34 -25 3 -23 3 -23 -10 -7 -17 22
-27 22 -19 0 16 -45 71 -76 60 -34 -3 14 -1 18 9 14 8 -3 14 -16 14 -30 0 -23
3 -24 33 -18 17 4 35 13 39 19 5 8 8 7 8 -2 0 -7 7 -20 15 -28 16 -17 20 -44
6 -44 -5 0 -8 7 -7 16 1 13 -10 18 -44 20 -51 4 -86 -15 -76 -41 5 -15 7 -15
22 0 11 11 25 14 41 10 16 -4 22 -2 18 5 -3 5 1 10 9 10 13 0 14 -5 6 -26 -13
-32 2 -54 33 -51 17 2 22 -4 22 -26 1 -16 6 -31 12 -35 16 -10 38 -81 58 -182
10 -47 21 -103 27 -125 5 -22 11 -49 12 -61 1 -11 6 -25 9 -32 20 -31 -25 -91
-58 -78 -7 2 -15 -4 -18 -15 -3 -13 -14 -19 -31 -19 -15 0 -34 -4 -44 -9 -9
-5 -28 -13 -42 -19 -14 -5 -38 -15 -53 -21 -70 -28 -258 -34 -357 -12 -25 6
-103 15 -174 21 -83 7 -138 16 -153 25 -21 14 -23 14 -23 0 0 -19 -2 -19 -45
-1 -19 8 -35 11 -35 5 0 -11 -43 -12 -54 -2 -4 4 -25 6 -46 4 -25 -1 -40 2
-40 9 0 6 -6 10 -13 9 -6 -1 -20 1 -29 5 -17 8 -16 10 4 40 31 45 76 85 102
92 16 4 26 15 29 32 5 26 23 52 77 110 13 15 25 33 26 40 2 8 10 22 18 31 9
10 16 21 16 26 0 4 8 15 18 24 9 9 30 41 46 71 32 60 58 90 79 90 9 0 14 11
14 30 0 29 -8 29 -37 0 -13 -13 -73 -40 -89 -40 -9 0 -26 -7 -39 -15 -21 -15
-21 -17 -5 -56 13 -34 14 -42 2 -49 -7 -5 -17 -6 -21 -4 -4 3 -8 0 -8 -5 0 -6
-20 -16 -45 -23 -27 -7 -47 -19 -51 -30 -6 -21 -25 -23 -42 -6 -6 6 -20 13
-29 14 -117 15 -173 38 -230 93 -41 39 -43 40 -62 24 -20 -16 -20 -17 1 -57
11 -23 27 -49 36 -59 14 -16 13 -19 -8 -42 -19 -20 -20 -25 -8 -25 9 0 18 4
20 9 4 12 58 2 58 -10 0 -5 -15 -9 -32 -9 l-33 -1 40 -34 c28 -25 35 -35 23
-35 -10 0 -18 -5 -18 -10 0 -6 -12 -21 -26 -34 -21 -18 -27 -31 -27 -66 0 -24
5 -46 11 -48 15 -5 3 -32 -14 -32 -17 0 -29 -24 -38 -72 -4 -24 -21 -50 -47
-77 -33 -33 -39 -44 -30 -55 8 -10 9 -16 1 -21 -5 -3 -10 -17 -10 -31 0 -28
23 -32 74 -10 31 13 35 13 39 -3 2 -10 2 -33 0 -52 -2 -19 -5 -46 -7 -60 -1
-14 -17 -48 -35 -74 -17 -26 -29 -50 -26 -54 8 -8 90 84 115 129 27 51 84 110
104 110 10 0 20 9 23 20 6 23 33 27 33 5 0 -11 5 -13 18 -6 9 5 36 15 59 22
24 6 40 16 36 22 -4 6 8 8 33 4 25 -4 48 -1 64 8 19 11 21 14 8 15 -10 0 -18
5 -18 10 0 6 20 10 44 10 72 0 224 -56 256 -95 17 -21 109 -81 135 -89 11 -3
52 -8 90 -11 94 -8 97 -9 157 -66 40 -38 58 -49 75 -45 12 4 23 1 25 -5 2 -7
18 -12 34 -13 27 -1 30 -4 29 -29 -1 -15 0 -25 3 -22 12 12 42 -69 42 -116 0
-48 -24 -119 -40 -119 -4 0 -27 -13 -51 -30 -24 -16 -56 -30 -71 -30 -16 0
-28 -4 -28 -8 0 -5 -26 -10 -57 -11 -31 -1 -62 -6 -67 -11 -6 -4 -47 -18 -90
-29 -73 -19 -108 -21 -425 -21 -385 -1 -488 0 -543 5 -37 3 -38 2 -38 -30 0
-29 4 -34 30 -40 24 -5 29 -11 25 -25 -3 -10 -1 -21 4 -24 13 -8 -7 -67 -23
-65 -6 1 -17 1 -23 0 -10 -1 -13 -192 -13 -881 l0 -880 685 0 685 0 12 25 c12
27 41 36 31 9 -5 -14 -1 -15 25 -9 31 6 46 -8 20 -18 -7 -3 413 -6 935 -6 747
-1 947 2 947 12 0 8 4 7 10 -3 8 -12 10 -10 10 10 l1 25 18 -23 c19 -22 19
-22 345 -22 l326 0 0 255 c0 231 -2 255 -17 264 -17 10 -17 10 0 11 9 0 17 7
17 15 0 8 -7 15 -15 15 -11 0 -15 11 -15 40 0 22 -4 40 -10 40 -5 0 -10 -18
-10 -40 0 -22 -4 -40 -10 -40 -5 0 -10 18 -10 40 0 38 -2 40 -30 40 -28 0 -30
2 -30 40 l0 40 40 0 c29 0 40 -4 40 -15 0 -9 9 -15 25 -15 l25 0 0 596 c0 566
-1 596 -17 583 -44 -32 -157 -158 -175 -194 -11 -22 -27 -47 -35 -55 -25 -26
-81 -121 -88 -148 -4 -15 -10 -29 -14 -32 -5 -3 -18 -34 -31 -70 -38 -109 -54
-366 -24 -383 18 -10 18 -27 -1 -27 -8 0 -14 -3 -13 -7 1 -5 -4 -18 -11 -31
-7 -13 -12 -53 -12 -90 1 -90 -4 -131 -17 -144 -9 -9 -12 -7 -12 10 0 12 -4
22 -10 22 -5 0 -10 -18 -10 -40 0 -22 5 -40 10 -40 6 0 10 -9 10 -20 0 -17 -7
-20 -40 -20 -38 0 -40 2 -40 30 0 19 -5 30 -14 30 -22 0 -30 -20 -9 -21 12 0
7 -6 -14 -16 -41 -21 -41 -27 -1 -44 17 -7 26 -15 20 -17 -7 -2 -12 -24 -12
-51 0 -26 -5 -52 -11 -58 -18 -18 -2 -63 21 -63 16 0 20 -7 20 -34 0 -19 4
-36 9 -38 5 -1 10 -21 11 -43 4 -77 5 -75 -49 -75 -45 0 -50 3 -63 30 -9 21
-18 28 -30 24 -13 -4 -18 0 -18 15 0 11 -4 23 -10 26 -15 9 -12 25 5 25 9 0
15 9 15 21 0 11 -7 27 -15 35 -12 12 -15 12 -15 2 0 -7 -16 -20 -37 -29 -34
-15 -37 -15 -55 3 -10 10 -21 32 -24 48 -5 22 -13 30 -35 35 -20 5 -29 13 -29
26 0 15 -7 19 -31 19 -26 0 -30 -3 -26 -19 3 -13 0 -17 -12 -14 -13 3 -15 15
-13 58 l4 55 -31 0 c-22 0 -35 -7 -47 -26 -15 -21 -61 -54 -79 -54 -3 0 -5 36
-5 80 0 73 -2 80 -20 80 -17 0 -20 7 -20 40 0 22 -4 40 -10 40 -5 0 -10 18
-10 40 l0 40 40 0 40 0 0 -56 c0 -39 4 -54 12 -52 15 5 11 101 -5 107 -6 2
-27 21 -47 41 -20 20 -43 39 -51 42 -11 4 -12 8 -1 19 10 11 12 10 12 -4 0 -9
6 -17 14 -17 16 0 31 73 16 78 -6 2 -10 10 -10 18 0 8 -7 14 -15 14 -10 0 -13
8 -11 28 2 15 1 21 -1 13 -3 -8 -12 -21 -19 -29 -9 -9 -11 -18 -6 -26 5 -6 6
-20 1 -31 -8 -20 -8 -20 -8 0 -1 12 -6 26 -12 32 -7 7 -3 21 15 48 14 20 23
41 21 45 -3 5 -1 11 5 15 5 3 10 0 10 -7 1 -8 7 -5 16 7 8 11 12 30 9 42 -4
18 -2 21 11 16 13 -5 15 -2 10 15 -5 14 -1 27 11 40 10 10 19 24 21 31 8 38
154 211 178 211 3 0 15 12 26 26 11 14 27 23 34 20 9 -3 14 2 14 14 0 11 4 20
10 20 5 0 9 3 7 8 -1 4 10 20 24 36 23 24 26 35 22 72 -3 28 1 55 11 76 20 38
20 38 0 38 -8 0 -12 5 -9 11 4 6 13 8 19 6 7 -3 17 -2 22 1 16 12 46 72 35 72
-5 0 -12 -8 -14 -17 -4 -17 -5 -17 -6 0 0 9 -6 17 -11 17 -13 0 -59 -51 -60
-65 0 -5 -11 -20 -23 -32 -23 -21 -23 -21 -35 -2 -7 10 -19 19 -28 19 -10 0
-12 5 -7 13 23 37 21 93 -5 116 -12 10 -19 21 -15 25 3 3 -1 6 -9 6 -9 0 -22
9 -29 20 -13 20 -18 21 -120 11 -98 -9 -110 -9 -148 10 -22 11 -41 25 -41 32
-1 19 -33 53 -67 70 -44 23 -62 57 -56 103 4 30 0 44 -16 61 -12 12 -21 28
-21 36 0 8 -18 19 -40 26 -42 12 -54 31 -20 31 24 0 24 3 5 58 -14 38 -14 46
0 65 8 12 15 33 15 48 0 33 71 106 117 118 17 5 56 25 85 44 29 19 87 51 128
70 92 44 73 48 -35 7 -85 -33 -221 -51 -290 -41 -35 5 -151 63 -165 81 -12 16
-52 30 -89 33 -22 1 -43 6 -47 10 -4 4 -16 7 -26 7 -10 0 -18 7 -18 15 0 8 -8
19 -18 24 -14 7 -18 21 -17 53 0 24 -3 60 -7 80 -14 66 27 128 85 128 32 0 32
0 8 13 -28 14 -43 44 -18 34 9 -3 28 0 42 7 l26 14 -28 10 c-15 6 -22 11 -15
11 18 1 15 28 -5 36 -17 7 -16 8 2 15 32 13 35 12 35 -20 0 -29 9 -38 24 -22
4 4 13 7 19 7 6 0 14 15 18 33 6 28 4 32 -10 27 -13 -5 -14 -4 -3 6 15 16 16
29 1 29 -5 0 -8 -3 -6 -7 3 -5 -2 -14 -10 -22 -13 -12 -14 -11 -8 8 4 15 2 21
-8 21 -9 0 -18 -6 -20 -12 -4 -10 -6 -10 -6 0 -1 7 -15 12 -36 12 -19 0 -35 4
-35 8 0 5 36 7 80 7 44 -1 80 2 80 6 0 5 -10 9 -23 9 -13 0 -32 6 -43 14 -13
10 -23 11 -31 4 -7 -5 -32 -8 -55 -5 -125 16 -147 31 -109 78 16 19 23 22 38
13 10 -6 29 -7 43 -3 40 11 100 10 100 -2 0 -8 4 -8 13 0 18 15 215 12 225 -4
4 -6 33 -19 65 -29 31 -10 57 -22 57 -28 0 -5 4 -6 10 -3 5 3 19 1 31 -5 16
-9 19 -18 15 -36 -4 -13 -4 -24 0 -24 14 0 74 33 74 41 0 4 -30 22 -67 39 -38
18 -75 36 -83 41 -36 22 -136 69 -148 69 -6 0 -36 12 -65 26 -28 14 -72 28
-97 31 -25 3 -52 9 -60 13 -8 4 -34 11 -58 15 -24 4 -41 10 -40 13 2 4 13 28
25 54 19 41 51 66 75 60 4 -1 5 5 2 13 -4 10 0 15 15 15 17 0 21 6 21 33 0 17
4 38 9 46 14 23 -13 66 -51 82 -56 22 -62 49 -23 91 17 18 25 39 25 63 0 30
-3 35 -24 35 -36 0 -23 39 16 47 34 7 68 46 68 79 0 13 5 24 10 24 6 0 10 5
10 11 0 17 43 48 68 49 13 0 20 4 17 10 -3 6 -2 10 3 10 5 0 21 11 36 25 27
25 27 25 4 25 -22 1 -22 1 5 16 15 8 27 21 27 29 0 23 13 18 45 -14 15 -17 37
-31 49 -33 19 -3 21 -10 22 -73 0 -67 2 -70 30 -82 16 -6 45 -12 64 -13 19 0
60 -9 90 -21 78 -30 180 -35 255 -14 33 9 65 17 72 17 7 1 14 7 17 15 3 7 12
13 21 13 35 0 -5 55 -47 64 -13 3 -50 10 -82 17 -41 8 -55 14 -45 20 13 8 5
13 -16 9 -5 -1 -4 4 3 11 16 17 15 29 -3 29 -28 0 -15 28 15 35 17 4 30 10 30
13 0 13 55 31 76 26 12 -3 25 -1 28 5 5 8 16 6 37 -4 16 -9 27 -20 24 -25 -4
-6 1 -10 9 -10 9 0 16 -7 16 -15 0 -9 7 -18 15 -21 8 -4 15 -17 15 -31 0 -28
38 -70 72 -78 21 -5 23 -11 20 -47 -5 -50 18 -49 32 1 10 37 25 36 44 -2 7
-15 20 -27 28 -27 12 0 12 4 4 21 -6 11 -9 28 -7 37 4 14 6 13 12 -5 4 -13 14
-23 21 -23 8 0 14 -10 14 -24 0 -25 -15 -43 -23 -29 -2 5 -2 2 0 -5 1 -8 3
-27 3 -43 0 -52 27 -22 35 39 l8 57 20 -80 c22 -88 23 -107 17 -273 -4 -111
-4 -113 23 -139 26 -26 27 -26 47 -8 11 10 21 30 21 44 1 21 3 19 8 -9 9 -44
18 -60 35 -60 18 0 39 -54 33 -86 -3 -19 1 -29 19 -41 22 -14 26 -14 49 1 14
9 25 24 25 34 0 26 20 42 52 42 24 0 28 -4 28 -27 l0 -26 23 20 c67 61 77 20
12 -56 -24 -29 -53 -71 -63 -94 -31 -70 -90 -144 -130 -163 -21 -11 -58 -18
-85 -18 -41 0 -52 5 -72 30 -17 21 -22 37 -18 59 9 47 -11 18 -30 -44 -19 -59
-15 -76 8 -45 26 34 34 -3 33 -152 0 -78 2 -146 6 -152 3 -6 2 -13 -4 -17 -10
-6 -2 -64 11 -80 15 -15 10 -35 -6 -29 -19 8 -19 0 0 -20 16 -15 23 -85 11
-104 -4 -7 -2 -12 3 -12 6 0 17 15 24 33 12 28 15 30 20 12 4 -11 21 -26 37
-34 28 -12 33 -11 45 5 13 18 14 18 20 2 4 -10 11 -18 17 -18 5 0 6 5 3 10 -9
14 8 12 24 -3 12 -10 13 -8 7 8 -9 23 -9 24 -7 48 1 16 6 17 34 11 17 -4 51
-8 74 -8 29 -1 47 -8 57 -21 12 -17 15 -18 30 -3 13 14 13 18 1 28 -14 11 -79
22 -126 21 -18 -1 -28 5 -32 18 -6 23 0 31 23 31 9 0 25 9 34 19 10 11 24 17
32 14 9 -3 12 0 9 8 -2 8 4 25 15 39 11 14 20 19 20 13 0 -7 5 -13 11 -13 5 0
7 5 4 11 -4 5 0 18 9 28 17 19 24 90 11 111 -15 25 -15 71 0 76 13 5 15 175
15 1333 l0 1327 -41 -4 c-29 -3 -38 -7 -30 -15 18 -18 13 -24 -19 -24 -24 0
-29 4 -25 18 3 9 -2 25 -11 34 -17 17 -26 78 -11 83 21 6 36 1 31 -12 -8 -21
28 -30 43 -10 7 9 10 20 8 25 -3 4 -1 10 5 14 5 3 10 -3 10 -13 0 -11 9 -22
20 -25 16 -4 20 0 20 21 0 39 -11 72 -23 72 -11 0 -36 30 -37 44 0 4 6 6 14 3
8 -3 17 2 21 11 6 15 8 15 15 -3 7 -17 9 -14 9 13 1 26 -3 32 -19 32 -11 0
-20 5 -20 10 0 6 9 10 20 10 14 0 20 7 20 23 0 18 -2 19 -10 7 -8 -13 -11 -12
-24 5 -15 20 -15 20 -16 -2 0 -28 -16 -30 -30 -3 -6 11 -17 20 -25 20 -8 0
-15 9 -15 20 0 30 -27 24 -35 -7 -4 -16 -10 -22 -12 -15 -3 6 -12 12 -22 12
-9 0 -26 7 -37 15 -19 14 -18 14 4 15 12 0 40 6 62 12 31 10 40 18 40 35 0 12
-5 25 -12 29 -8 5 -9 0 -6 -14 4 -12 3 -20 -2 -17 -4 3 -11 -3 -15 -13 -6 -16
-7 -16 -20 1 -12 17 -14 17 -23 2 -11 -21 -56 -11 -48 11 3 8 1 14 -4 14 -14
0 -12 27 3 33 10 4 10 6 0 6 -13 1 -19 31 -7 31 3 0 21 -7 40 -16 37 -18 54
-13 35 10 -6 8 -11 29 -10 48 2 18 -3 42 -9 53 -11 18 -12 15 -10 -20 4 -47
-16 -57 -49 -25 -12 11 -30 20 -39 20 -9 0 -23 8 -30 18 -12 15 -13 14 -14
-10 0 -18 5 -28 15 -28 8 0 15 -4 15 -10 0 -5 9 -10 19 -10 24 0 37 -18 24
-31 -15 -15 -101 10 -119 35 -11 16 -17 18 -23 8 -10 -17 -44 -4 -37 14 7 18
-10 18 -21 1 -4 -7 -25 -18 -45 -24 -35 -10 -38 -10 -38 10 0 20 0 20 -15 1
-18 -24 -19 -34 -2 -34 19 0 102 -80 92 -88 -19 -14 -11 -47 13 -50 24 -4 29
7 11 25 -8 8 -5 17 10 32 12 12 21 27 21 34 0 17 37 39 45 27 9 -15 -3 -30
-19 -24 -7 3 -16 -1 -19 -9 -4 -11 0 -13 14 -10 25 7 24 -8 -1 -30 -11 -9 -20
-22 -20 -29 0 -19 18 -43 26 -36 7 8 34 -16 34 -31 0 -13 -33 -23 -52 -16 -13
5 -24 -13 -28 -42 0 -2 -8 -11 -17 -22 -10 -10 -27 -30 -38 -44 -11 -14 -26
-26 -34 -27 -20 0 -91 -32 -91 -41 0 -4 10 -10 23 -14 12 -3 17 -9 10 -11 -15
-6 -6 -34 11 -34 23 0 35 22 26 46 -8 19 -6 24 8 26 9 0 22 2 28 2 6 1 18 7
27 15 9 7 21 10 26 7 5 -4 12 -2 16 4 9 15 25 12 25 -5 0 -11 7 -14 25 -9 15
4 25 2 25 -5 0 -6 -5 -11 -11 -11 -8 0 -8 -4 0 -13 8 -10 7 -17 -1 -25 -15
-15 -75 -15 -80 0 -6 18 -28 -1 -29 -25 0 -12 -3 -16 -6 -9 -2 6 -9 12 -15 12
-12 0 -38 -26 -38 -38 0 -5 -13 -9 -30 -8 -16 1 -30 4 -30 9 0 4 -6 7 -14 7
-7 0 -19 7 -26 16 -11 13 -10 16 10 21 21 6 22 7 6 13 -17 5 -18 17 -17 110 2
89 5 106 22 121 17 15 17 18 4 29 -12 10 -13 16 -3 27 9 11 9 16 -2 23 -10 6
-16 34 -18 85 l-4 75 25 -9 c22 -9 24 -7 20 10 -3 11 -2 19 3 18 21 -4 44 2
44 11 0 5 -17 12 -37 16 -40 7 -53 18 -53 46 0 10 6 15 18 12 11 -4 23 5 34
24 13 22 28 31 57 36 24 3 41 13 46 23 6 15 9 14 22 -11 l16 -30 19 27 c11 15
24 25 29 21 5 -3 9 2 9 11 0 9 -4 13 -10 10 -5 -3 -10 -1 -10 5 0 7 7 9 15 6
11 -4 19 3 27 22 7 15 13 29 14 30 6 10 39 -36 36 -51 -2 -9 1 -17 7 -17 6 0
11 7 11 15 0 8 5 15 10 15 6 0 10 -7 10 -15 0 -19 14 -19 30 0 7 8 16 12 21 9
11 -6 41 21 32 30 -4 3 -15 6 -25 6 -11 0 -16 4 -13 10 3 5 -7 18 -23 27 -17
11 -28 25 -26 36 1 9 -6 22 -17 27 -10 6 -19 17 -19 25 0 8 -15 21 -34 30 -19
9 -37 24 -40 32 -14 35 62 53 98 24 10 -9 28 -11 51 -7 34 7 34 7 15 26 -11
11 -20 26 -20 34 0 20 19 30 25 14 3 -8 14 -14 25 -15 26 -2 26 28 1 51 -17
15 -19 15 -25 1 -5 -14 -10 -11 -32 14 -24 29 -27 30 -49 15 -13 -9 -29 -13
-35 -9 -5 3 -13 -1 -16 -9 -4 -12 -20 -16 -56 -16 -42 0 -49 3 -46 18 3 13 13
17 46 16 36 -1 42 2 36 15 -27 64 -29 74 -16 78 6 3 12 9 12 14 0 5 8 18 17
29 22 26 53 26 53 1 0 -14 5 -18 18 -14 14 3 18 11 15 31 -4 21 -2 24 6 12 6
-8 11 -10 11 -4 0 17 -21 33 -37 27 -7 -3 -13 -2 -12 3 4 17 -13 63 -27 75 -8
6 -14 23 -14 36 0 34 -37 83 -61 83 -25 0 -54 -15 -80 -41 -21 -21 -39 -25
-39 -9 0 6 -5 9 -11 8 -6 -2 -14 3 -16 10 -3 8 1 12 12 10 23 -4 44 27 28 43
-9 9 -11 7 -6 -10z m93 -117 c0 -28 19 -42 32 -23 7 11 8 10 6 -5 -3 -19 -9
-21 -79 -33 -30 -4 -37 -2 -41 14 -6 21 -44 37 -54 22 -3 -5 2 -9 10 -9 25 0
18 -19 -9 -26 -30 -7 -33 -24 -6 -24 16 0 19 -6 18 -34 -3 -39 -17 -62 -17
-27 0 12 -7 24 -15 27 -8 4 -15 12 -15 20 0 8 -4 14 -10 14 -5 0 -10 -11 -10
-25 0 -29 -8 -32 -25 -9 -10 14 -15 14 -34 4 -13 -6 -25 -9 -28 -6 -10 10 8
25 37 31 26 6 30 11 30 40 0 35 7 38 108 48 12 1 22 8 22 14 0 9 14 12 40 11
34 -1 40 -4 40 -24z m-310 -135 c0 -5 -12 -14 -27 -20 -17 -7 -23 -13 -15 -16
7 -3 23 2 36 11 22 14 25 14 37 0 10 -13 10 -20 0 -36 -16 -26 -6 -36 17 -15
13 12 28 15 55 10 24 -4 37 -2 37 6 0 19 18 12 25 -9 7 -23 25 -27 25 -5 0 14
4 14 31 -1 22 -11 28 -19 21 -26 -8 -8 -16 -7 -27 2 -18 15 -20 13 -29 -17 -5
-14 -3 -23 3 -23 6 0 11 -7 11 -15 0 -8 -3 -15 -8 -15 -14 0 -32 39 -25 57 6
17 5 17 -13 1 -16 -14 -25 -15 -60 -6 -36 10 -44 9 -72 -12 -32 -24 -62 -22
-62 5 0 20 -30 19 -45 -2 -17 -23 -37 -7 -33 27 1 15 -3 34 -10 43 -14 17 0
33 19 21 8 -4 9 0 4 15 -5 18 -3 21 22 20 17 -1 21 -3 11 -6 -10 -2 -18 -9
-18 -14 0 -17 23 -9 46 17 23 23 44 25 44 3z m-1569 -5221 c39 -11 53 -28 24
-28 -8 0 -15 -6 -15 -14 0 -8 -6 -16 -12 -19 -9 -3 -5 -11 11 -26 13 -11 22
-24 18 -27 -9 -9 -47 15 -47 31 0 18 -60 31 -70 15 -5 -8 -16 -10 -26 -6 -18
6 -18 5 0 -8 18 -14 17 -15 -7 -21 -15 -4 -48 2 -88 18 -35 13 -73 25 -84 25
-11 1 -38 8 -60 16 -45 16 -52 12 75 36 46 8 65 9 68 1 5 -16 27 -14 42 4 15
18 115 20 171 3z m-1528 -109 c67 -20 77 -26 77 -46 0 -27 15 -30 28 -7 6 11
16 14 31 9 23 -7 27 -25 11 -41 -7 -7 -8 -19 -1 -37 13 -33 25 -36 18 -4 -4
12 -3 27 1 33 14 22 109 7 261 -42 120 -38 155 -53 159 -68 4 -16 6 -17 11 -4
5 13 21 10 116 -20 61 -19 146 -47 190 -63 44 -15 163 -55 265 -88 102 -33
186 -65 188 -69 1 -5 13 -7 26 -5 13 3 27 0 30 -6 4 -6 16 -11 26 -11 11 0 34
-7 52 -15 18 -8 52 -19 76 -25 37 -10 42 -14 42 -40 0 -16 -5 -32 -10 -35 -7
-4 -8 -11 -2 -18 10 -12 9 -74 -1 -84 -4 -3 -18 -2 -32 1 -18 5 -25 12 -21 21
3 8 1 15 -4 15 -6 0 -10 -4 -10 -10 0 -5 -9 -10 -20 -10 -13 0 -20 7 -20 20 0
12 7 20 17 20 14 0 15 2 4 12 -11 11 -14 10 -18 0 -3 -6 -10 -9 -15 -6 -6 4
-8 2 -4 -4 14 -22 -15 -22 -86 2 -48 16 -74 31 -77 42 -2 13 -5 14 -11 4 -4
-7 -13 -9 -19 -6 -14 9 -14 39 1 54 6 6 9 15 5 18 -9 9 -47 -38 -42 -52 7 -21
-39 -2 -62 25 -19 22 -24 24 -33 11 -8 -13 -13 -13 -41 3 -17 9 -39 17 -49 17
-37 0 -183 64 -188 82 -5 21 -7 21 -30 7 -13 -8 -27 -7 -57 6 -36 15 -38 18
-22 29 9 7 17 18 17 24 0 6 5 14 11 18 8 5 10 -2 6 -22 -5 -26 -4 -27 9 -10
16 23 12 30 -27 50 -29 14 -30 14 -24 -5 4 -10 4 -19 1 -19 -12 0 -62 25 -68
35 -5 6 -8 4 -8 -4 0 -11 -4 -9 -14 5 -12 15 -17 17 -28 6 -11 -11 -10 -14 2
-22 8 -5 23 -10 33 -10 9 0 17 -7 17 -16 0 -13 3 -14 14 -5 9 8 16 8 20 2 10
-16 -13 -23 -54 -16 -21 4 -41 13 -44 21 -3 9 -10 13 -16 9 -5 -3 -17 -1 -27
4 -20 10 -85 32 -153 51 -48 13 -68 20 -115 41 -16 7 -32 13 -35 13 -3 1 -51
17 -107 35 -66 22 -103 40 -103 49 0 9 -6 12 -17 8 -9 -4 -38 1 -65 10 -43 14
-48 19 -48 45 0 16 -5 29 -10 29 -6 0 -8 11 -4 26 l7 26 -27 -27 c-27 -27 -27
-45 0 -45 8 0 14 -4 14 -10 0 -13 -26 -13 -51 0 -24 13 -24 21 2 48 11 12 17
26 14 32 -3 5 3 13 12 19 17 10 17 10 1 11 -10 0 -18 4 -18 10 0 6 8 6 23 1
12 -5 57 -20 100 -32z m1870 -111 c16 -8 25 -18 22 -27 -3 -8 9 -28 27 -46 50
-50 54 -56 81 -146 25 -82 31 -129 15 -129 -4 0 -2 -11 4 -25 12 -27 41 -41
59 -29 9 5 10 0 6 -15 -7 -29 11 -91 27 -91 7 0 17 -20 23 -44 8 -37 7 -48 -5
-60 -14 -14 -14 -17 1 -34 9 -10 17 -29 17 -41 0 -12 4 -20 9 -17 24 15 22
-110 -2 -126 -8 -4 -7 -15 1 -33 7 -14 12 -48 12 -75 0 -38 4 -50 15 -50 10 0
15 -12 17 -37 1 -37 1 -37 5 -5 2 17 9 32 15 32 5 0 8 -6 5 -14 -3 -8 -3 -16
0 -19 8 -9 12 -308 4 -302 -5 2 -12 37 -16 77 -5 40 -10 64 -13 53 -2 -10 -11
-29 -19 -41 -11 -17 -12 -27 -3 -43 6 -12 7 -21 1 -21 -5 0 -9 -40 -9 -91 0
-91 0 -91 24 -85 14 4 24 2 24 -4 0 -5 -15 -10 -34 -10 -36 0 -55 -25 -40 -52
5 -10 4 -10 -6 -1 -7 7 -14 33 -14 58 -1 25 -4 45 -8 45 -5 0 -13 0 -19 0 -5
0 -7 -4 -4 -10 3 -5 -1 -10 -10 -10 -8 0 -18 -7 -21 -15 -8 -19 -24 -19 -24 0
0 18 -46 21 -53 3 -4 -10 -7 -10 -18 0 -11 10 -10 12 4 12 21 0 22 19 2 26 -8
4 -15 17 -15 30 0 13 -4 24 -10 24 -5 0 -10 -7 -10 -15 0 -8 -7 -15 -16 -15
-12 0 -15 6 -10 23 3 14 -2 35 -14 55 -11 18 -20 50 -20 72 0 30 -4 40 -16 40
-8 0 -12 5 -9 10 3 6 1 10 -4 10 -6 0 -11 11 -11 24 0 14 -4 27 -8 30 -4 2 -9
22 -10 42 -2 21 -7 41 -11 44 -4 3 -11 22 -15 43 -4 20 -11 37 -16 37 -6 0
-10 18 -10 40 0 25 5 40 13 40 9 0 8 3 -2 9 -9 6 -13 27 -12 66 0 32 -3 63 -8
69 -11 14 -7 131 8 216 6 36 8 95 5 133 -5 53 -4 67 7 67 8 0 5 6 -8 15 -20
14 -21 21 -16 117 3 57 10 105 14 106 5 2 9 11 9 20 0 10 7 26 15 36 8 10 12
23 9 28 -7 11 14 38 30 38 7 0 24 -6 39 -12z m549 -139 c-3 -22 -1 -30 7 -25
27 17 -1 -185 -31 -221 -6 -8 -20 -12 -32 -11 -19 3 -21 -2 -24 -70 -2 -43 -7
-70 -12 -67 -6 4 -10 -14 -10 -43 0 -27 -3 -77 -6 -111 -7 -59 -8 -62 -30 -57
-21 6 -24 3 -24 -24 0 -16 5 -30 10 -30 6 0 10 -5 10 -11 0 -7 -10 -9 -24 -5
-19 5 -25 2 -25 -11 0 -10 -2 -29 -4 -43 -2 -14 1 -31 6 -37 5 -7 7 -19 4 -27
-3 -7 -1 -18 5 -24 7 -7 4 -14 -11 -21 -19 -11 -21 -9 -22 16 -4 94 -5 600 -1
610 6 18 22 5 22 -18 0 -10 5 -19 10 -19 6 0 10 23 10 50 0 41 3 50 18 50 16
1 16 1 0 11 -10 5 -18 20 -17 32 1 21 2 20 9 -3 10 -31 12 -27 14 36 1 48 17
84 38 84 5 0 22 -10 37 -21 33 -24 51 -19 51 15 0 12 3 26 6 29 13 13 21 -3
16 -34z m313 -129 c-4 -14 -2 -20 8 -20 15 0 33 -47 22 -58 -3 -3 -5 2 -5 11
0 21 -16 22 -23 3 -3 -8 -1 -17 6 -19 9 -3 8 -8 -2 -21 -12 -14 -13 -21 -2
-38 12 -19 11 -20 -21 -13 -27 6 -31 5 -20 -6 6 -7 12 -17 12 -21 0 -5 -20 12
-45 36 -36 36 -45 52 -45 80 0 57 8 66 55 66 24 0 47 5 50 10 11 17 17 11 10
-10z m-2080 -439 c70 -26 156 -60 180 -71 21 -9 126 -47 158 -57 9 -3 17 -12
17 -20 0 -8 4 -12 9 -9 13 8 71 -17 71 -31 0 -17 -17 -26 -22 -11 -7 19 -38 1
-38 -22 0 -32 20 -62 36 -56 10 4 14 -2 14 -19 0 -14 -5 -25 -11 -25 -6 0 -8
7 -5 16 4 12 1 14 -14 9 -14 -5 -20 -2 -20 10 0 9 -4 13 -10 10 -5 -3 -10 1
-10 9 0 9 -5 16 -10 16 -9 0 5 35 20 50 12 12 9 29 -5 24 -8 -4 -15 -15 -15
-25 0 -10 -4 -19 -10 -19 -5 0 -10 -7 -10 -15 0 -14 -3 -13 -24 2 -25 19 -28
40 -7 53 8 4 10 13 6 20 -5 9 -2 10 14 5 11 -3 21 -2 21 3 0 5 -8 12 -17 15
-10 3 -38 13 -63 23 -25 9 -65 20 -90 23 -26 4 -44 11 -43 18 3 13 -10 18 -70
28 -21 3 -41 13 -44 21 -6 17 -63 19 -63 2 0 -6 -2 -9 -5 -7 -3 4 4 49 9 49 1
0 24 -8 51 -19z m2535 -831 c11 -11 17 -26 14 -35 -4 -10 0 -15 15 -15 14 0
21 -6 21 -20 0 -12 -7 -20 -17 -20 -9 0 -25 -8 -36 -18 -15 -13 -21 -14 -24
-4 -4 9 -9 10 -18 2 -15 -12 -45 -3 -45 14 0 6 -4 5 -9 -3 -7 -11 -10 -9 -16
8 -3 12 -10 19 -15 16 -16 -10 -19 25 -2 41 15 16 17 16 22 -6 5 -22 7 -21 40
18 19 23 38 41 43 42 4 0 16 -9 27 -20z"/>
<path d="M40 6955 c-8 -20 -20 -41 -27 -47 -7 -6 -13 -30 -13 -55 0 -45 16
-73 42 -73 9 0 14 -10 13 -27 -1 -16 0 -31 2 -35 6 -12 53 23 53 38 0 8 6 23
12 34 10 16 10 24 1 40 -9 13 -9 21 -2 26 6 4 15 0 20 -7 10 -17 17 -10 22 22
4 23 37 41 37 20 0 -12 26 -15 33 -3 9 14 19 77 12 70 -4 -4 -20 1 -34 11 -19
14 -31 17 -44 10 -18 -10 -62 -8 -73 4 -18 17 -41 5 -54 -28z"/>
<path d="M570 4687 c-23 -18 -43 -67 -28 -67 7 0 5 -7 -5 -17 -17 -17 -19 -17
-33 1 -8 11 -14 27 -14 37 0 19 -58 34 -90 24 -18 -6 -18 -7 3 -28 21 -21 26
-23 56 -26 7 0 11 -7 8 -15 -3 -8 5 -26 19 -41 30 -33 52 -74 70 -136 14 -46
29 -67 41 -55 3 3 6 53 6 111 0 87 -3 109 -18 125 -15 17 -16 24 -5 50 7 16
18 30 26 30 7 0 16 5 19 10 9 14 -37 12 -55 -3z"/>
</g>
</svg>
